# xmcd
#
# Track frame offsets:
#	150
#	103679
#	130761
#	161021
#	179439
#	186677
#
# Disc length: 2741 seconds
# Revision: 0
# Processed by: cddbd v1.5.2PL0 Copyright (c) Steve Scherf et al.
# Submitted via: dBpowerAMP V12.0
#
DISCID=530ab306
DTITLE=Hale Dwoskin - The Inner Circle Retreat 02 CD 14
DYEAR=2007
DGENRE=Speech
TTITLE0=Control Freak - Looking for the Answers in the Mind
TTITLE1=You Cannot Get This Wrong
TTITLE2=One Without a Second Includes Everything
TTITLE3=You Can Only Know Objects
TTITLE4=Recognize the Presence of Awareness That You Are
TTITLE5=About Oneness
EXTD=
EXTT0=
EXTT1=
EXTT2=
EXTT3=
EXTT4=
EXTT5=
PLAYORDER=
